<?xml version="1.0" standalone="no"?>
<!DOCTYPE svg PUBLIC "-//W3C//DTD SVG 20010904//EN"
 "http://www.w3.org/TR/2001/REC-SVG-20010904/DTD/svg10.dtd">
<svg version="1.0" xmlns="http://www.w3.org/2000/svg"
 width="422.000000pt" height="483.000000pt" viewBox="0 0 422.000000 483.000000"
 preserveAspectRatio="xMidYMid meet">

<g transform="translate(0.000000,483.000000) scale(0.100000,-0.100000)"
fill="#ffffff" stroke="none">
<path d="M1935 4771 c-147 -42 -265 -142 -334 -282 -62 -129 -70 -184 -86
-629 -16 -445 -28 -528 -97 -663 -11 -22 -17 -41 -14 -44 8 -8 92 167 114 239
37 120 52 213 72 470 23 293 33 365 67 468 81 248 234 393 468 445 l60 13 -95
0 c-61 0 -117 -6 -155 -17z"/>
<path d="M2527 4606 c-103 -43 -180 -122 -244 -251 -45 -89 -67 -163 -133
-450 -67 -287 -93 -374 -155 -515 -84 -191 -193 -347 -364 -525 -109 -112
-107 -117 9 -26 81 63 191 174 255 256 162 209 246 389 350 759 64 228 95 315
145 416 81 161 184 262 320 316 86 34 77 44 -40 44 -66 0 -98 -6 -143 -24z"/>
<path d="M3086 4384 c-92 -29 -164 -84 -226 -174 -80 -118 -107 -191 -200
-548 -81 -312 -134 -452 -238 -627 -86 -144 -234 -319 -377 -444 l-60 -53 65
43 c235 154 418 365 550 634 66 133 105 240 200 542 106 338 247 523 453 595
37 12 67 26 67 29 0 22 -166 24 -234 3z"/>
<path d="M3660 4250 c-155 -33 -288 -168 -369 -380 -16 -41 -61 -181 -101
-310 -85 -281 -132 -402 -207 -534 -103 -182 -245 -349 -453 -530 l-55 -48 60
37 c152 94 290 215 400 353 155 193 232 341 355 686 73 206 111 293 165 386
88 150 199 247 333 291 37 12 71 24 76 27 31 17 -137 35 -204 22z"/>
<path d="M3890 3495 c-101 -31 -266 -155 -367 -276 -133 -159 -213 -317 -329
-647 -153 -436 -195 -535 -289 -677 -127 -191 -307 -343 -539 -455 -78 -37
-151 -71 -164 -75 -13 -4 -22 -8 -20 -10 9 -9 242 49 323 80 256 99 458 293
567 547 22 50 79 211 127 357 123 368 187 506 328 704 160 224 333 343 556
384 53 10 97 20 97 24 0 15 -39 37 -82 48 -62 15 -152 13 -208 -4z"/>
<path d="M463 3049 c-68 -13 -114 -39 -174 -99 -64 -64 -102 -137 -130 -253
-35 -149 -42 -167 -75 -222 -18 -30 -29 -55 -26 -55 4 0 21 9 39 20 41 25 69
69 131 209 60 133 88 177 156 238 93 84 212 118 326 94 29 -6 55 -10 57 -8 8
9 -116 66 -165 76 -59 12 -79 12 -139 0z"/>
<path d="M520 2562 c82 -28 133 -57 167 -96 53 -59 57 -86 49 -341 -7 -263 -2
-296 63 -430 101 -205 248 -338 439 -395 63 -19 89 -22 175 -17 56 2 120 12
142 20 l40 16 -45 1 c-67 1 -188 25 -253 50 -126 48 -273 170 -342 285 -66
111 -86 195 -96 415 -11 229 -20 282 -59 343 -48 76 -178 148 -291 162 l-44 5
55 -18z"/>
<path d="M323 681 c-71 -24 -127 -63 -164 -114 -69 -93 -83 -169 -74 -394 l7
-163 59 0 59 0 0 194 c0 193 0 194 28 247 53 102 162 145 267 105 53 -21 109
-80 125 -133 7 -21 14 -122 17 -225 l6 -188 58 0 57 0 4 198 c3 189 4 200 29
247 15 30 42 62 68 80 39 27 50 30 120 30 68 0 83 -3 119 -27 22 -15 54 -49
69 -75 28 -48 28 -49 31 -250 l3 -203 60 0 60 0 -3 222 c-3 212 -4 225 -27
268 -40 76 -86 125 -153 161 -58 31 -70 34 -148 33 -101 -1 -165 -24 -246 -90
l-52 -42 -28 30 c-89 94 -232 131 -351 89z"/>
<path d="M2323 681 c-70 -24 -129 -66 -170 -121 -56 -76 -64 -121 -61 -346 l3
-199 58 -3 c41 -2 57 1 58 10 0 7 0 83 -1 168 -1 232 27 312 125 360 83 40
208 14 260 -54 42 -55 55 -133 55 -319 l0 -168 61 3 62 3 1 195 c1 180 3 198
23 235 43 80 112 125 193 125 60 0 114 -21 153 -58 58 -55 62 -70 67 -292 l5
-205 60 0 60 0 3 165 c4 245 -14 323 -99 415 -90 97 -258 130 -380 73 -31 -14
-74 -42 -96 -62 -22 -20 -43 -36 -47 -36 -3 0 -32 21 -65 46 -101 78 -221 102
-328 65z"/>
<path d="M3673 660 c-77 -31 -147 -99 -173 -167 -45 -121 -34 -242 32 -346 84
-132 281 -178 401 -95 25 18 27 25 27 84 l0 65 -27 -26 c-60 -55 -138 -70
-211 -39 -84 35 -132 110 -132 209 0 71 23 126 71 172 44 41 77 53 147 53 107
-1 181 -56 201 -150 6 -28 11 -130 11 -226 l0 -175 53 3 52 3 3 195 c1 114 -2
217 -9 248 -15 72 -60 127 -139 171 -60 33 -73 36 -160 38 -77 3 -105 -1 -147
-17z"/>
<path d="M1484 656 c-3 -8 -4 -31 -2 -52 l3 -39 126 0 c106 -1 130 -4 159 -20
43 -26 55 -46 46 -79 -13 -51 -56 -66 -191 -66 -66 0 -126 -4 -133 -9 -9 -5
-12 -24 -10 -52 l3 -44 135 -5 c94 -3 142 -9 157 -20 52 -34 54 -95 6 -127
-21 -14 -56 -19 -163 -23 l-135 -5 0 -50 0 -50 140 0 c164 0 213 14 269 75 58
64 60 144 6 218 -23 32 -27 43 -16 49 7 4 23 24 35 43 27 44 27 109 1 159 -43
85 -114 111 -302 111 -101 0 -130 -3 -134 -14z"/>
</g>
</svg>
