<svg width="740" height="126" viewBox="0 0 740 126" fill="none" xmlns="http://www.w3.org/2000/svg">
<path d="M44.3636 3.135C31.3921 7.51328 21.161 14.628 14.4011 23.9318C1.79496 40.8976 -0.762819 54.7621 0.881464 95.8084L2.16035 125.544H12.9395H23.7187V90.1532C23.7187 54.9445 23.7187 54.7621 28.8343 45.0934C38.5173 26.4858 58.4314 18.6414 77.6147 25.9385C87.2977 29.7695 97.5288 40.5327 100.452 50.2014C101.731 54.0324 103.01 72.4576 103.558 91.2477L104.654 125.544H115.251H125.664L126.395 89.4234C126.943 54.9445 127.126 52.9378 131.693 44.3637C134.434 38.8909 139.367 33.0532 144.117 29.7695C151.242 24.8439 153.252 24.2966 166.041 24.2966C178.464 24.2966 181.205 24.8439 187.782 29.2222C191.801 31.9586 197.647 38.1612 200.388 42.9043C205.503 51.6609 205.503 51.8433 206.052 88.5113L206.6 125.544H217.562H228.523L227.975 85.0452C227.427 46.3704 227.245 43.9989 223.042 36.1545C215.735 22.2899 207.33 13.351 195.09 6.78356C184.493 1.12829 182.301 0.581009 168.05 0.763435C149.598 0.945862 137.905 5.14171 123.107 17.182L113.606 24.8439L108.491 19.3711C92.2306 2.22286 66.1047 -4.52698 44.3636 3.135Z" fill="white"/>
<path d="M409.76 3.13484C396.971 7.51311 386.192 15.1751 378.701 25.2086C368.47 39.0732 367.009 47.2824 367.557 88.3287L368.105 124.632L378.701 125.179C386.192 125.544 389.115 124.997 389.298 123.355C389.298 122.078 389.298 108.213 389.115 92.707C388.932 50.3837 394.048 35.7895 411.952 27.0329C427.116 19.7358 449.954 24.4789 459.454 36.884C467.127 46.9176 469.502 61.1469 469.502 95.0786V125.726L480.647 125.179L491.974 124.632L492.157 89.0584C492.34 56.2214 492.705 52.9377 496.359 46.1879C504.215 31.5936 516.821 23.3844 531.62 23.3844C542.582 23.3844 552.447 27.2153 559.573 33.9652C570.169 43.9987 570.9 46.7351 571.813 87.2342L572.727 124.632H583.689H594.651L595.199 94.5313C595.93 49.8364 592.641 35.607 577.112 18.8237C560.669 1.12814 529.975 -4.89198 507.686 5.50641C502.023 8.0604 494.167 13.1684 490.147 16.8169C486.128 20.4655 482.291 23.3844 481.56 23.3844C481.012 23.3844 475.714 19.5534 469.685 14.9927C451.233 0.763283 429.309 -3.61499 409.76 3.13484Z" fill="white"/>
<path d="M656.402 6.96556C642.335 12.6208 629.546 25.0259 624.796 37.431C616.574 59.5048 618.584 81.5786 630.642 100.551C645.989 124.632 681.98 133.023 703.904 117.882C708.471 114.598 708.837 113.321 708.837 102.558V90.7L703.904 95.4432C692.942 105.477 678.692 108.213 665.355 102.558C650.008 96.1729 641.238 82.4908 641.238 64.4304C641.238 51.478 645.441 41.4445 654.21 33.0528C662.249 25.5732 668.278 23.3841 681.067 23.3841C700.615 23.5665 714.135 33.6001 717.789 50.7483C718.885 55.8563 719.799 74.4639 719.799 91.977V123.902L729.482 123.355L738.982 122.807L739.53 87.2339C739.713 66.4371 739.165 47.647 737.886 41.9917C735.145 28.8569 726.924 18.8234 712.491 10.7966C701.529 4.77643 699.154 4.22914 683.259 3.86429C669.191 3.317 664.076 4.04671 656.402 6.96556Z" fill="white"/>
<path d="M256.476 7.69545C255.928 9.15487 255.745 13.3507 256.111 17.1817L256.659 24.2964H279.679C299.045 24.4788 303.43 25.0261 308.728 27.945C316.584 32.6881 318.776 36.3366 317.132 42.3568C314.757 51.6606 306.901 54.397 282.237 54.397C270.179 54.397 259.217 55.1267 257.938 56.0389C256.294 56.951 255.745 60.4171 256.111 65.5251L256.659 73.552L281.323 74.4641C298.497 75.0114 307.266 76.106 310.007 78.1127C319.507 84.3152 319.873 95.4433 311.103 101.281C307.266 103.835 300.872 104.747 281.323 105.477L256.659 106.389V115.51V124.632H282.237C312.199 124.632 321.151 122.078 331.382 110.95C341.979 99.2743 342.344 84.6801 332.479 71.1804C328.277 65.3427 327.546 63.336 329.556 62.2414C330.834 61.5117 333.758 57.8632 335.95 54.397C340.883 46.3702 340.883 34.5124 336.133 25.391C328.277 9.88458 315.305 5.14146 280.958 5.14146C262.505 5.14146 257.207 5.68874 256.476 7.69545Z" fill="white"/>
</svg>
